<svg width="20" height="20" class="hidden">
  <symbol xmlns="http://www.w3.org/2000/svg" viewBox="0 0 101.996 102" id="instagram">
    <defs>
      <radialGradient id="a" cx="13.551" cy="102.482" r="133.147" gradientUnits="userSpaceOnUse">
        <stop offset=".09" stop-color="#fa8f21"></stop>
        <stop offset=".78" stop-color="#d82d7e"></stop>
      </radialGradient>
      <radialGradient id="b" cx="61.859" cy="107.051" r="104.938" gradientUnits="userSpaceOnUse">
        <stop offset=".64" stop-color="#8c3aaa" stop-opacity="0"></stop>
        <stop offset="1" stop-color="#8c3aaa"></stop>
      </radialGradient>
    </defs>
    <path fill="#eb4d4b" d="M34,51A17,17,0,1,1,51,68,17,17,0,0,1,34,51m-9.191,0A26.188,26.188,0,1,0,51,24.812,26.187,26.187,0,0,0,24.812,51M72.1,23.774a6.12,6.12,0,1,0,6.122-6.118h0a6.123,6.123,0,0,0-6.12,6.118M30.4,92.513a28.187,28.187,0,0,1-9.471-1.754,15.85,15.85,0,0,1-5.866-3.815,15.735,15.735,0,0,1-3.815-5.862A28.161,28.161,0,0,1,9.49,71.611c-.247-5.376-.3-6.991-.3-20.61s.053-15.23.3-20.61a28.374,28.374,0,0,1,1.754-9.471,15.85,15.85,0,0,1,3.815-5.866,15.718,15.718,0,0,1,5.866-3.815A28.161,28.161,0,0,1,30.4,9.484c5.376-.247,6.991-.3,20.6-.3s15.23.053,20.61.3a28.373,28.373,0,0,1,9.471,1.754,15.8,15.8,0,0,1,5.866,3.815,15.8,15.8,0,0,1,3.815,5.866,28.162,28.162,0,0,1,1.754,9.471c.247,5.38.3,6.991.3,20.61s-.049,15.23-.3,20.61a28.294,28.294,0,0,1-1.754,9.471,16.886,16.886,0,0,1-9.681,9.677,28.161,28.161,0,0,1-9.471,1.754c-5.376.247-6.991.3-20.61.3s-15.23-.049-20.6-.3M29.974.309A37.4,37.4,0,0,0,17.595,2.678,25.015,25.015,0,0,0,8.56,8.56a24.918,24.918,0,0,0-5.883,9.034A37.407,37.407,0,0,0,.309,29.974C.058,35.412,0,37.15,0,51S.058,66.588.309,72.026A37.405,37.405,0,0,0,2.678,84.405,24.931,24.931,0,0,0,8.56,93.44a25.076,25.076,0,0,0,9.034,5.883,37.43,37.43,0,0,0,12.379,2.369c5.441.247,7.176.309,21.026.309s15.588-.058,21.026-.309a37.405,37.405,0,0,0,12.379-2.369A26.075,26.075,0,0,0,99.322,84.405a37.3,37.3,0,0,0,2.369-12.379c.247-5.442.3-7.176.3-21.026s-.058-15.588-.3-21.026a37.394,37.394,0,0,0-2.369-12.379A25.08,25.08,0,0,0,93.44,8.56a24.955,24.955,0,0,0-9.03-5.883A37.347,37.347,0,0,0,72.03.309C66.593.062,64.854,0,51,0s-15.59.058-21.03.309"></path>
    <path fill="#eb4d4b" d="M34,51A17,17,0,1,1,51,6 8,17,17,0,0,1,34,51m-9.191,0A26.188,26.188,0,1,0,51,24.812,26.187,26.187,0,0,0,24.812,51M72.1,23.774a6.12,6.12,0,1,0,6.122-6.118h0a6.123,6.123,0,0,0-6.12,6.118M30.4,92.513a28.187,28.187,0,0,1-9.471-1.754,15.85,15.85,0,0,1-5.866-3.815,15.735,15.735,0,0,1-3.815-5.862A28.161,28.161,0,0,1,9.49,71.611c-.247-5.376-.3-6.991-.3-20.61s.053-15.23.3-20.61a28.374,28.374,0,0,1,1.754-9.471,15.85,15.85,0,0,1,3.815-5.866,15.718,15.718,0,0,1,5.866-3.815A28.161,28.161,0,0,1,30.4,9.484c5.376-.247,6.991-.3,20.6-.3s15.23.053,20.61.3a28.373,28.373,0,0,1,9.471,1.754,15.8,15.8,0,0,1,5.866,3.815,15.8,15.8,0,0,1,3.815,5.866,28.162,28.162,0,0,1,1.754,9.471c.247,5.38.3,6.991.3,20.61s-.049,15.23-.3,20.61a28.294,28.294,0,0,1-1.754,9.471,16.886,16.886,0,0,1-9.681,9.677,28.161,28.161,0,0,1-9.471,1.754c-5.376.247-6.991.3-20.61.3s-15.23-.049-20.6-.3M29.974.309A37.4,37.4,0,0,0,17.595,2.678,25.015,25.015,0,0,0,8.56,8.56a24.918,24.918,0,0,0-5.883,9.034A37.407,37.407,0,0,0,.309,29.974C.058,35.412,0,37.15,0,51S.058,66.588.309,72.026A37.405,37.405,0,0,0,2.678,84.405,24.931,24.931,0,0,0,8.56,93.44a25.076,25.076,0,0,0,9.034,5.883,37.43,37.43,0,0,0,12.379,2.369c5.441.247,7.176.309,21.026.309s15.588-.058,21.026-.309a37.405,37.405,0,0,0,12.379-2.369A26.075,26.075,0,0,0,99.322,84.405a37.3,37.3,0,0,0,2.369-12.379c.247-5.442.3-7.176.3-21.026s-.058-15.588-.3-21.026a37.394,37.394,0,0,0-2.369-12.379A25.08,25.08,0,0,0,93.44,8.56a24.955,24.955,0,0,0-9.03-5.883A37.347,37.347,0,0,0,72.03.309C66.593.062,64.854,0,51,0s-15.59.058-21.03.309"></path>
  </symbol>
  <symbol xmlns="http://www.w3.org/2000/svg" fill="none" viewBox="0 0 48 48" id="telegram (1)">
    <rect width="48" height="48" fill="#419FD9" rx="24"></rect>
    <rect width="48" height="48" fill="url(#paint0_linear)" rx="24"></rect>
    <path fill="#fff" d="M10.7874 23.4709C17.7667 20.3663 22.4206 18.3195 24.7493 17.3305C31.3979 14.507 32.7795 14.0165 33.68 14.0002C33.878 13.9968 34.3208 14.0469 34.6077 14.2845C34.8499 14.4852 34.9165 14.7563 34.9484 14.9465C34.9803 15.1368 35.02 15.5702 34.9884 15.9088C34.6281 19.774 33.0692 29.1539 32.276 33.483C31.9404 35.3148 31.2796 35.929 30.6399 35.9891C29.2496 36.1197 28.1938 35.051 26.8473 34.1497C24.7401 32.7395 23.5498 31.8615 21.5044 30.4854C19.1407 28.895 20.673 28.0209 22.0201 26.5923C22.3726 26.2185 28.4983 20.5295 28.6169 20.0135C28.6317 19.9489 28.6455 19.7083 28.5055 19.5813C28.3655 19.4543 28.1589 19.4977 28.0098 19.5322C27.7985 19.5812 24.4323 21.8529 17.9113 26.3473C16.9558 27.0172 16.0904 27.3435 15.315 27.3264C14.4602 27.3076 12.8159 26.833 11.5935 26.4273C10.0942 25.9296 8.90254 25.6666 9.0063 24.8215C9.06035 24.3813 9.65403 23.9311 10.7874 23.4709Z"></path>
    <defs>
      <linearGradient id="paint0_linear" x1="24" x2="24" y2="47.644" gradientUnits="userSpaceOnUse">
        <stop stop-color="#2AABEE"></stop>
        <stop offset="1" stop-color="#229ED9"></stop>
      </linearGradient>
    </defs>
  </symbol>
  <symbol xmlns="http://www.w3.org/2000/svg" viewBox="0 0 72 72" id="linkedin">
    <g fill="none" fill-rule="evenodd">
      <rect width="72" height="72" fill="#3498db" rx="4"></rect>
      <path fill="white" d="M13.139 27.848h9.623V58.81h-9.623V27.848zm4.813-15.391c3.077 0 5.577 2.5 5.577 5.577 0 3.08-2.5 5.581-5.577 5.581a5.58 5.58 0 1 1 0-11.158zm10.846 15.39h9.23v4.231h.128c1.285-2.434 4.424-5 9.105-5 9.744 0 11.544 6.413 11.544 14.75V58.81h-9.617V43.753c0-3.59-.066-8.209-5-8.209-5.007 0-5.776 3.911-5.776 7.95V58.81h-9.615V27.848z"></path>
    </g>
  </symbol>
  <symbol xmlns="http://www.w3.org/2000/svg" viewBox="0 0 266.893 266.895" id="facebook">
    <path fill="#485a96" d="M252.164 266.895c8.134 0 14.729-6.596 14.729-14.73V14.73c0-8.137-6.596-14.73-14.729-14.73H14.73C6.593 0 0 6.594 0 14.73v237.434c0 8.135 6.593 14.73 14.73 14.73h237.434z"></path>
    <path fill="#fff" d="M184.152 266.895V163.539h34.692l5.194-40.28h-39.887V97.542c0-11.662 3.238-19.609 19.962-19.609l21.329-.01V41.897c-3.689-.49-16.351-1.587-31.08-1.587-30.753 0-51.807 18.771-51.807 53.244v29.705h-34.781v40.28h34.781v103.355h41.597z"></path>
  </symbol>
  <symbol xmlns="http://www.w3.org/2000/svg" viewBox="0 0 24 24" id="iconmonstr-github-1">
    <path d="M12 0c-6.626 0-12 5.373-12 12 0 5.302 3.438 9.8 8.207 11.387.599.111.793-.261.793-.577v-2.234c-3.338.726-4.033-1.416-4.033-1.416-.546-1.387-1.333-1.756-1.333-1.756-1.089-.745.083-.729.083-.729 1.205.084 1.839 1.237 1.839 1.237 1.07 1.834 2.807 1.304 3.492.997.107-.775.418-1.305.762-1.604-2.665-.305-5.467-1.334-5.467-5.931 0-1.311.469-2.381 1.236-3.221-.124-.303-.535-1.524.117-3.176 0 0 1.008-.322 3.301 1.23.957-.266 1.983-.399 3.003-.404 1.02.005 2.047.138 3.006.404 2.291-1.552 3.297-1.23 3.297-1.23.653 1.653.242 2.874.118 3.176.77.84 1.235 1.911 1.235 3.221 0 4.609-2.807 5.624-5.479 5.921.43.372.823 1.102.823 2.222v3.293c0 .319.192.694.801.576 4.765-1.589 8.199-6.086 8.199-11.386 0-6.627-5.373-12-12-12z"></path>
  </symbol>
</svg>